PathFileType	4	(X/Y/Z)	C:/Users/beibeiliu/ov580/test_trc/capture2\sequence.21_training_dense_left.trc
DataRate	CameraRate	NumFrames	NumMarkers	Units	OrigDataRate	OrigDataStartFrame	OrigNumFrames
120	120	8	19	mm	120	178	355
Frame#	Time	ThumbCMC			ThumbMCP			ThumbIP			ThumbTip			IndexMCP			IndexPIP			IndexTip			MiddleMCP			MiddlePIP			MiddleTip			RingMCP			RingPIP			RingTip			PinkyMCP			PinkyPIP			PinkyTip			BackHand1			BackHand2			BackHand3	
		X0	Y0	Z0	X1	Y1	Z1	X2	Y2	Z2	X3	Y3	Z3	X4	Y4	Z4	X5	Y5	Z5	X6	Y6	Z6	X7	Y7	Z7	X8	Y8	Z8	X9	Y9	Z9	X10	Y10	Z10	X11	Y11	Z11	X12	Y12	Z12	X13	Y13	Z13	X14	Y14	Z14	X15	Y15	Z15	X16	Y16	Z16	X17	Y17	Z17	X18	Y18	Z18	
177	1.475	-76.1341	117.864	-13.152	-75.0645	106.176	-45.9573	-70.063	106.181	-68.9129	-66.271	109.603	-94.6702	-72.4837	168.733	-67.4062	-72.9918	166.59	-91.5648	-71.6087	164.812	-118.26	-96.0415	156.275	-72.1881	-95.1162	122.741	-77.9282	-96.0385	119.312	-43.211	-110.049	146.697	-73.0888	-110.092	117.881	-67.1967	-105.789	125.797	-31.5689	-132.5	145.238	-65.9435	-123.238	117.071	-56.4279	-118.529	130.446	-25.408	-125.304	166.354	-21.5208	-132.336	147.519	8.58466	-96.2762	154.937	0.41022	
178	1.48333	-76.8124	123.273	-14.0235	-78.4072	115.704	-45.8147	-67.9071	112.221	-73.2137	-65.7255	113.2	-94.1655	-73.9623	173.721	-63.8094	-75.4643	173.942	-91.2155	-72.2255	172.674	-119.449	-92.6235	160.539	-76.05	-93.3078	128.67	-77.5171	-94.8898	124.854	-42.659	-111.536	153.909	-72.2428	-112.65	121.95	-65.184	-106.214	129.591	-32.9173	-131.621	148.069	-68.414	-122.555	124.216	-58.4901	-117.147	133.85	-27.3184	-128.087	170.373	-21.3008	-128.352	155.461	6.95046	-94.7001	160.16	0.331638	
179	1.49167	-78.7138	126.411	-12.0434	-76.7683	115.887	-41.9387	-71.236	117.517	-71.4834	-69.475	118.948	-91.6177	-76.4204	179.157	-67.797	-72.2376	178.148	-88.1661	-78.4202	177.208	-114.33	-94.6088	166.246	-72.5299	-94.4834	135.65	-80.5459	-98.0139	127.68	-43.9836	-117.685	157.311	-71.6951	-111.009	128.062	-67.7642	-108.647	133.168	-32.3974	-132.501	150.965	-68.2892	-121.767	126.75	-55.6749	-119.976	136.433	-26.3313	-129.268	172.592	-18.5657	-129.662	155.127	8.76662	-98.2751	162.341	1.40639	
180	1.5	-79.5866	131.479	-12.9265	-75.9852	118.912	-41.8471	-68.2543	120.507	-74.2158	-69.4771	124.238	-96.4451	-81.7039	182.331	-62.6854	-78.2321	180.896	-91.4971	-75.809	180.442	-115.493	-95.1678	167.186	-74.684	-93.8401	135.579	-77.6134	-96.0756	130.327	-41.5385	-116.819	157.595	-74.8116	-108.835	131.132	-69.1021	-108.852	134.372	-32.4285	-129.399	154.021	-66.5643	-121.533	129.025	-56.7474	-119.41	137.491	-25.9336	-125.943	176.297	-18.9043	-132.942	161.93	6.93485	-101.869	164.284	-0.224378	
181	1.50833	-80.8796	134.718	-12.9683	-73.1587	121.773	-45.5615	-67.6259	121.209	-69.9743	-67.0962	125.168	-94.5223	-78.9651	185.664	-65.8489	-77.8379	182.951	-87.0754	-74.173	181.776	-116.654	-98.2815	170.169	-72.3554	-92.2732	140.739	-79.0358	-96.8819	132.322	-39.4131	-119.032	161.683	-70.2194	-108.672	130.334	-64.4428	-107.993	133.937	-33.8272	-135.613	155.657	-65.3882	-118.43	131.628	-54.9762	-119.123	140.8	-23.9439	-127.822	176.919	-17.7189	-134.491	158.202	9.77371	-102.33	169.417	-2.01023	
182	1.51667	-81.2858	132.352	-8.78067	-73.8463	121.197	-43.1417	-67.1502	121.051	-70.7354	-65.6804	123.012	-90.7702	-78.3483	185.252	-60.6179	-75.3209	183.72	-85.2048	-74.6778	182.452	-114.405	-96.1993	170.648	-71.0412	-94.2403	136.891	-75.1147	-96.9358	130.547	-42.5207	-111.66	159.918	-70.4302	-108.202	130.992	-63.9377	-109.546	135.307	-28.7095	-131.456	154.788	-65.4169	-124.471	128.618	-55.2415	-120.705	141.522	-23.3111	-129.883	175.054	-16.7589	-132.675	158.02	12.0881	-100.783	166.574	2.00819	
183	1.525	-80.8288	131.788	-8.61554	-72.7517	118.584	-41.2732	-65.9787	119.274	-67.4388	-68.8827	125.344	-90.8304	-79.3916	183.478	-61.3448	-71.2771	181.721	-88.8501	-71.7103	180.678	-110.687	-98.8784	169.777	-68.0054	-94.2909	135.134	-74.4914	-95.943	130.019	-38.5859	-114.327	159.105	-68.0066	-110.847	127.544	-62.6532	-107.94	130.85	-30.5295	-132.927	154.541	-63.2618	-120.004	129.347	-52.8854	-117.332	135.655	-22.6159	-125.911	172.434	-12.769	-134.741	157.267	12.7764	-100.718	163.496	5.09663	
184	1.53333	-77.3359	128.724	-9.61021	-71.9276	114.856	-39.5761	-67.5512	116.548	-65.6288	-66.1197	119.268	-86.0894	-78.1631	179.535	-58.0597	-72.6663	178.125	-82.6252	-74.998	177.483	-108.688	-97.821	163.306	-70.3692	-91.608	134.851	-76.0977	-94.2809	124.101	-40.0785	-114.829	153.673	-69.2159	-108.736	125.59	-62.6923	-108.7	126.896	-26.8992	-130.329	149.747	-62.6459	-119.069	125.043	-51.5192	-121.059	132.876	-20.7329	-126.868	170.542	-12.7791	-131.125	151.111	13.6209	-98.4489	161.547	4.17991	
